<svg xmlns="http://www.w3.org/2000/svg" width="1779" height="379" fill="none" xmlns:v="https://vecta.io/nano"><path d="M1759 287c12.33 11 18.83 21.5 19.5 31.5 1 9.667-4.5 20.833-16.5 33.5-9 9.333-16.83 15.333-23.5 18-6.33 3-12.67 3-19 0-6.33-2.667-13.83-7.833-22.5-15.5l-61.5-57.5v27.5c0 7.333-.67 14.5-2 21.5s-5.17 12.667-11.5 17c-6 4.333-16.67 6.5-32 6.5-15 0-25.67-2.167-32-6.5-6.33-4.667-10.17-10.5-11.5-17.5-1-7-1.5-14.167-1.5-21.5V45.5c0-7.667.67-14.833 2-21.5 1.33-7 5.17-12.667 11.5-17 6.33-4.667 17-7 32-7s25.5 2.333 31.5 7c6.33 4.333 10.17 10 11.5 17s2 14.333 2 22v138l42.5-41.5c8-7.667 15.5-12.833 22.5-15.5 7-3 13.83-3.167 20.5-.5 7 2.333 14.33 7.667 22 16 13 14 19.17 25.333 18.5 34-.33 8.667-6.5 19-18.5 31l-40.5 35.5 56.5 44zm-832 84.5c-15 0-25.667-2.167-32-6.5-6.333-4.667-10.167-10.5-11.5-17.5-1-7.333-1.5-14.667-1.5-22v-163c0-7.667.667-14.833 2-21.5 1.333-7 5.167-12.667 11.5-17s17-6.5 32-6.5c14.667 0 25 2 31 6 6.333 4 10.167 8.5 11.5 13.5 1.333 4.667 2 8.333 2 11l-8-3 4-4.5c2.667-3 6.5-6.5 11.5-10.5 5.333-4 11.5-7.5 18.5-10.5 7.33-3 15.5-4.5 24.5-4.5 3 0 6.67.333 11 1 4.67.333 9.5 1.167 14.5 2.5 5.33 1.333 10.17 3.333 14.5 6 4.67 2.667 8.33 6.167 11 10.5 3 4.333 4.5 9.667 4.5 16 0 16.667-3.67 30.833-11 42.5-7 11.667-16.33 17.5-28 17.5-6.33 0-10.83-.333-13.5-1-2.67-1-4.67-1.833-6-2.5-1-1-2.33-1.833-4-2.5-1.33-1-4-1.5-8-1.5-5 0-9.667.667-14 2a32.95 32.95 0 0 0-11 5c-3 2.333-5.333 5.167-7 8.5-1.667 3-2.5 6.333-2.5 10v97.5c0 7.333-.667 14.5-2 21.5s-5.167 12.667-11.5 17-17.167 6.5-32.5 6.5z" fill="#77b255"/><g clip-path="url(#A)"><path d="M454.5 370.5c-16 0-31-3.167-45-9.5-13.667-6.333-25.667-15.167-36-26.5-10.333-11.667-18.333-25.167-24-40.5s-8.5-32-8.5-50v-81.5c0-7.667.667-14.833 2-21.5 1.333-7 5.167-12.667 11.5-17 6.333-4.667 17-7 32-7 15.333 0 26 2.333 32 7 6.333 4.333 10.167 10 11.5 17s2 14.333 2 22v81c0 7.667 1.333 14.167 4 19.5 3 5.333 7.167 9.5 12.5 12.5 5.667 2.667 12.167 4 19.5 4s13.667-1.5 19-4.5 9.5-7.167 12.5-12.5 4.5-11.667 4.5-19v-82c0-7.667.667-14.833 2-21.5 1.333-7 5.167-12.667 11.5-17s17-6.5 32-6.5c15.333 0 26 2.333 32 7 6.333 4.333 10.167 10 11.5 17s2 14.167 2 21.5V327c0 7.333-.667 14.333-2 21s-5.167 12.167-11.5 16.5-17 6.5-32 6.5c-11 0-19.667-1.333-26-4-6-2.333-10.333-5.333-13-9-2.667-4-4.333-7.833-5-11.5-.333-4-.5-7.333-.5-10l8.5 2.5-4 5c-2.667 3-6.667 6.667-12 11-5 4-11.167 7.667-18.5 11-7 3-15.167 4.5-24.5 4.5z" fill="#77b255"/></g><path d="M1157 378.5c-15 0-25.67-2.167-32-6.5-6.33-4.667-10.17-10.5-11.5-17.5-1-7-1.5-14.167-1.5-21.5V170c0-7.333.67-14.333 2-21 1.33-7 5.17-12.667 11.5-17 6.33-4.667 17-7 32-7s25.5 2.333 31.5 7c6.33 4.333 10.17 10 11.5 17s2 14.333 2 22v162.5c0 7.333-.67 14.5-2 21.5s-5.17 12.667-11.5 17c-6 4.333-16.67 6.5-32 6.5zm0-278c-15 0-25.67-2.167-32-6.5-6.33-4.667-10.17-10.5-11.5-17.5-1-7-1.5-14.167-1.5-21.5 0-7.667.67-14.833 2-21.5 1.33-7 5.17-12.667 11.5-17s17-6.5 32-6.5 25.5 2.333 31.5 7c6.33 4.333 10.17 10 11.5 17s2 14.167 2 21.5-.67 14.5-2 21.5-5.17 12.667-11.5 17c-6 4.333-16.67 6.5-32 6.5zM775 372c-17.667 0-33-2-46-6s-23.833-10.167-32.5-18.5c-8.333-8.333-14.667-18.833-19-31.5-4-12.667-6-27.5-6-44.5v-194c0-7.667.667-14.667 2-21 1.333-6.667 5.167-12 11.5-16 6.333-4.333 17-6.5 32-6.5 14.667 0 25.167 2.333 31.5 7 6.333 4.333 10.167 10 11.5 17s2 14.167 2 21.5V267c0 3.667.167 6.833.5 9.5.667 2.333 1.5 4.167 2.5 5.5s2.333 2.333 4 3 3.833 1 6.5 1c8.667 0 16.333.667 23 2 7 1.333 12.333 4.833 16 10.5 4 5.667 6 15.167 6 28.5 0 15-2.333 25.667-7 32S803 369 796 370c-7 1.333-14 2-21 2zM661 121h58.5l69-2.5c7.333 0 14.333.667 21 2 7 1.333 12.667 5.167 17 11.5 4.667 6.333 7 17.167 7 32.5 0 14-2.333 24.167-7 30.5-4.333 6.333-10 10.333-17 12-6.667 1.667-13.833 2.5-21.5 2.5l-63.5-1.5H659c-11.333-.667-19.167-4.333-23.5-11s-6.5-17.667-6.5-33c0-14.333 2.667-25 8-32 5.333-7.333 13.333-11 24-11zM45 371.5c-14.667 0-25.167-2.167-31.5-6.5-6.333-4.667-10.167-10.5-11.5-17.5s-2-14.333-2-22V66c0-7.333.667-14.333 2-21s5.167-12.167 11.5-16.5C20.167 24.167 31 22 46 22c14.667 0 24.667 1.833 30 5.5s10.167 8.333 14.5 14l125 168V66c0-7.333.667-14.333 2-21 1.667-6.667 5.667-12.167 12-16.5s17-6.5 32-6.5c15.333 0 26 2.333 32 7 6.333 4.333 10.167 10 11.5 17s2 14.333 2 22v258c0 7.333-.667 14.5-2 21.5s-5.167 12.833-11.5 17.5c-6.333 4.333-17.167 6.5-32.5 6.5-11.333 0-20-1-26-3-5.667-1.667-10.5-5.167-14.5-10.5L91 187v139c0 7.333-.667 14.5-2 21.5s-5.167 12.833-11.5 17.5c-6.333 4.333-17.167 6.5-32.5 6.5zm1336 7.5c-15.33 0-30.83-3.743-46.5-11.229-15.67-7.901-30.17-18.923-43.5-33.062-13-14.556-23.5-31.815-31.5-51.777-7.67-20.378-11.5-43.044-11.5-67.996 0-22.873 3.5-44.291 10.5-64.254s16.5-37.429 28.5-52.4c12.33-15.388 26.33-27.448 42-36.181 16-8.733 33-13.1 51-13.1 24.67 0 47 7.486 67 22.457 20 14.556 36 34.31 48 59.263s18 52.816 18 83.592c0 26.2-4 49.49-12 69.868s-18.5 37.637-31.5 51.777-27.33 24.744-43 31.814C1411.17 375.257 1396 379 1381 379zm-1-114.159c5 0 10.67-1.456 17-4.367 6.67-3.327 12.33-8.733 17-16.219 5-7.486 7.5-17.675 7.5-30.567 0-10.396-1.83-19.338-5.5-26.824-3.33-7.486-8.17-13.309-14.5-17.467s-13.67-6.238-22-6.238c-7.33 0-14 2.287-20 6.862-6 4.158-10.83 10.189-14.5 18.091-3.67 7.485-5.5 16.219-5.5 26.2 0 12.476 2.33 22.457 7 29.943s10.17 12.892 16.5 16.219c6.33 2.911 12 4.367 17 4.367z" fill="#77b255"/><ellipse cx="1380.5" cy="214" rx="92.5" ry="132" fill="#f2e392"/><ellipse cx="1381" cy="214" rx="67" ry="74" fill="#6e331a"/><ellipse cx="1373.5" cy="231" rx="28.5" ry="28" fill="#ad733f"/><defs><clipPath id="A"><path fill="#fff" transform="translate(341 117)" d="M0 0h254v254H0z"/></clipPath></defs></svg>